<svg width="229" height="59" viewBox="0 0 229 59" fill="none" xmlns="http://www.w3.org/2000/svg">
<circle cx="29" cy="30" r="28" stroke="black" stroke-width="2"/>
<circle cx="29" cy="54" r="4" stroke="black" stroke-width="2"/>
<line x1="65" y1="1.5" x2="115" y2="1.5" stroke="black"/>
<line x1="65" y1="58.5" x2="115" y2="58.5" stroke="black"/>
<path d="M130.367 8.96094H131.797V10.4688H130.367V13H128.5V10.4688H123.562L123.516 9.33594L128.438 1.625H130.367V8.96094ZM125.438 8.96094H128.5V4.11719L128.297 4.48438L125.438 8.96094ZM137.93 12.7422C137.93 13.0182 137.893 13.3021 137.82 13.5938C137.753 13.8854 137.651 14.1719 137.516 14.4531C137.385 14.7344 137.227 15 137.039 15.25C136.857 15.5052 136.654 15.7318 136.43 15.9297L135.375 15.375C135.599 15 135.771 14.6042 135.891 14.1875C136.01 13.776 136.07 13.3151 136.07 12.8047V11.1719H137.938L137.93 12.7422ZM144.961 11.4531C145.638 11.4531 146.206 11.375 146.664 11.2188C147.128 11.0573 147.503 10.8359 147.789 10.5547C148.076 10.2734 148.286 9.94271 148.422 9.5625C148.562 9.17708 148.651 8.76042 148.688 8.3125C148.573 8.44271 148.44 8.5651 148.289 8.67969C148.143 8.78906 147.977 8.88802 147.789 8.97656C147.607 9.0599 147.404 9.1276 147.18 9.17969C146.961 9.22656 146.719 9.25 146.453 9.25C145.896 9.25 145.411 9.14583 145 8.9375C144.589 8.72396 144.247 8.44271 143.977 8.09375C143.706 7.73958 143.503 7.33333 143.367 6.875C143.237 6.41667 143.172 5.9375 143.172 5.4375C143.172 4.89062 143.253 4.3776 143.414 3.89844C143.576 3.41406 143.812 2.99219 144.125 2.63281C144.438 2.27344 144.82 1.98958 145.273 1.78125C145.732 1.57292 146.253 1.46875 146.836 1.46875C147.466 1.46875 148.013 1.59375 148.477 1.84375C148.945 2.09375 149.333 2.42969 149.641 2.85156C149.953 3.27344 150.185 3.76562 150.336 4.32812C150.492 4.88542 150.57 5.47396 150.57 6.09375V6.70312C150.57 7.24479 150.534 7.77865 150.461 8.30469C150.393 8.82552 150.273 9.32292 150.102 9.79688C149.935 10.2656 149.711 10.6979 149.43 11.0938C149.154 11.4896 148.807 11.8333 148.391 12.125C147.979 12.4115 147.49 12.638 146.922 12.8047C146.359 12.9661 145.708 13.0469 144.969 13.0469H144.82V11.4531H144.961ZM146.836 7.77344C147.049 7.77344 147.253 7.73958 147.445 7.67188C147.643 7.60417 147.823 7.51042 147.984 7.39062C148.146 7.27083 148.289 7.1276 148.414 6.96094C148.539 6.79427 148.638 6.61198 148.711 6.41406V5.79688C148.711 5.33854 148.659 4.9349 148.555 4.58594C148.456 4.23177 148.32 3.9375 148.148 3.70312C147.977 3.46354 147.776 3.28385 147.547 3.16406C147.323 3.04427 147.086 2.98438 146.836 2.98438C146.544 2.98438 146.286 3.04688 146.062 3.17188C145.839 3.29688 145.648 3.46875 145.492 3.6875C145.341 3.90104 145.224 4.15365 145.141 4.44531C145.062 4.73698 145.023 5.04948 145.023 5.38281C145.023 5.69531 145.06 5.99479 145.133 6.28125C145.206 6.56771 145.315 6.82292 145.461 7.04688C145.612 7.26562 145.802 7.44271 146.031 7.57812C146.26 7.70833 146.529 7.77344 146.836 7.77344ZM163.727 4.54688L163.773 5.4375C163.94 5.10938 164.164 4.85417 164.445 4.67188C164.727 4.48438 165.065 4.39062 165.461 4.39062C165.82 4.39062 166.117 4.46354 166.352 4.60938C166.591 4.75 166.771 4.97135 166.891 5.27344C167.057 5.0026 167.271 4.78906 167.531 4.63281C167.792 4.47135 168.107 4.39062 168.477 4.39062C168.753 4.39062 169.005 4.4375 169.234 4.53125C169.469 4.61979 169.667 4.76302 169.828 4.96094C169.995 5.15885 170.122 5.41146 170.211 5.71875C170.305 6.02604 170.352 6.39583 170.352 6.82812V13H168.617V6.8125C168.617 6.47396 168.544 6.24219 168.398 6.11719C168.258 5.98698 168.076 5.92188 167.852 5.92188C167.638 5.92188 167.469 5.97396 167.344 6.07812C167.219 6.17708 167.128 6.3099 167.07 6.47656V13H165.375V6.8125C165.375 6.48438 165.307 6.25521 165.172 6.125C165.042 5.98958 164.862 5.92188 164.633 5.92188C164.414 5.92188 164.242 5.96875 164.117 6.0625C163.992 6.15625 163.896 6.28385 163.828 6.44531V13H162.094V4.54688H163.727ZM172.664 4.54688H177.172V11.4531H179.68V13H172.664V11.4531H175.289V6.10156H172.664V4.54688ZM175.133 2.35938C175.133 2.06771 175.227 1.82812 175.414 1.64062C175.602 1.44792 175.865 1.35156 176.203 1.35156C176.547 1.35156 176.812 1.44792 177 1.64062C177.193 1.82812 177.289 2.06771 177.289 2.35938C177.289 2.65104 177.193 2.89323 177 3.08594C176.812 3.27344 176.547 3.36719 176.203 3.36719C175.865 3.36719 175.602 3.27344 175.414 3.08594C175.227 2.89323 175.133 2.65104 175.133 2.35938ZM182.211 1H186.781V11.4531H189.359V13H182.211V11.4531H184.898V2.55469H182.211V1ZM193.344 5.71875C193.635 5.30208 193.99 4.97656 194.406 4.74219C194.828 4.50781 195.297 4.39062 195.812 4.39062C196.25 4.39062 196.651 4.45573 197.016 4.58594C197.385 4.71615 197.701 4.91927 197.961 5.19531C198.221 5.46615 198.424 5.81771 198.57 6.25C198.716 6.67708 198.789 7.1901 198.789 7.78906V13H196.922V7.77344C196.922 7.45052 196.88 7.17448 196.797 6.94531C196.719 6.71094 196.604 6.51823 196.453 6.36719C196.307 6.21615 196.128 6.10417 195.914 6.03125C195.701 5.95833 195.458 5.92188 195.188 5.92188C194.781 5.92188 194.422 6.00781 194.109 6.17969C193.797 6.34635 193.542 6.57292 193.344 6.85938V13H191.477V1H193.344V5.71875ZM200.742 8.69531C200.742 8.08594 200.831 7.51823 201.008 6.99219C201.19 6.46615 201.448 6.01042 201.781 5.625C202.12 5.23958 202.531 4.9375 203.016 4.71875C203.5 4.5 204.049 4.39062 204.664 4.39062C205.284 4.39062 205.836 4.5 206.32 4.71875C206.81 4.9375 207.221 5.23958 207.555 5.625C207.893 6.01042 208.151 6.46615 208.328 6.99219C208.505 7.51823 208.594 8.08594 208.594 8.69531V8.85938C208.594 9.47396 208.505 10.0443 208.328 10.5703C208.151 11.0964 207.893 11.5521 207.555 11.9375C207.221 12.3177 206.812 12.6172 206.328 12.8359C205.844 13.0547 205.294 13.1641 204.68 13.1641C204.06 13.1641 203.505 13.0547 203.016 12.8359C202.531 12.6172 202.12 12.3177 201.781 11.9375C201.448 11.5521 201.19 11.0964 201.008 10.5703C200.831 10.0443 200.742 9.47396 200.742 8.85938V8.69531ZM202.609 8.85938C202.609 9.24479 202.648 9.60677 202.727 9.94531C202.81 10.2839 202.935 10.5833 203.102 10.8438C203.273 11.099 203.49 11.3021 203.75 11.4531C204.01 11.599 204.32 11.6719 204.68 11.6719C205.029 11.6719 205.331 11.599 205.586 11.4531C205.846 11.3021 206.06 11.099 206.227 10.8438C206.398 10.5833 206.523 10.2839 206.602 9.94531C206.685 9.60677 206.727 9.24479 206.727 8.85938V8.69531C206.727 8.32031 206.685 7.96354 206.602 7.625C206.523 7.28646 206.398 6.98958 206.227 6.73438C206.06 6.47917 205.846 6.27604 205.586 6.125C205.331 5.97396 205.023 5.89844 204.664 5.89844C204.31 5.89844 204.003 5.97396 203.742 6.125C203.482 6.27604 203.268 6.47917 203.102 6.73438C202.935 6.98958 202.81 7.28646 202.727 7.625C202.648 7.96354 202.609 8.32031 202.609 8.69531V8.85938ZM207.477 1.03125C207.477 1.27083 207.435 1.5026 207.352 1.72656C207.273 1.94531 207.161 2.14062 207.016 2.3125C206.87 2.48438 206.693 2.6224 206.484 2.72656C206.281 2.82552 206.057 2.875 205.812 2.875C205.552 2.875 205.331 2.83854 205.148 2.76562C204.971 2.69271 204.805 2.61198 204.648 2.52344C204.492 2.4349 204.333 2.35417 204.172 2.28125C204.016 2.20833 203.833 2.17188 203.625 2.17188C203.526 2.17188 203.432 2.19271 203.344 2.23438C203.255 2.27083 203.177 2.32552 203.109 2.39844C203.042 2.47135 202.987 2.55729 202.945 2.65625C202.909 2.75521 202.891 2.86458 202.891 2.98438L201.914 2.76562C201.914 2.53125 201.953 2.30208 202.031 2.07812C202.115 1.85417 202.227 1.65365 202.367 1.47656C202.513 1.29948 202.688 1.15885 202.891 1.05469C203.094 0.945312 203.32 0.890625 203.57 0.890625C203.784 0.890625 203.979 0.927083 204.156 1C204.339 1.07292 204.513 1.15365 204.68 1.24219C204.852 1.33073 205.023 1.41146 205.195 1.48438C205.367 1.55729 205.555 1.59375 205.758 1.59375C205.857 1.59375 205.951 1.57552 206.039 1.53906C206.133 1.4974 206.214 1.44271 206.281 1.375C206.349 1.30208 206.401 1.21615 206.438 1.11719C206.479 1.01302 206.5 0.901042 206.5 0.78125L207.477 1.03125ZM214.633 13.1562C214.008 13.1562 213.438 13.0521 212.922 12.8438C212.406 12.6354 211.964 12.349 211.594 11.9844C211.229 11.6198 210.945 11.1901 210.742 10.6953C210.539 10.1953 210.438 9.65625 210.438 9.07812V8.75781C210.438 8.08594 210.544 7.48177 210.758 6.94531C210.977 6.40885 211.266 5.95052 211.625 5.57031C211.99 5.1901 212.411 4.89844 212.891 4.69531C213.375 4.49219 213.883 4.39062 214.414 4.39062C215.029 4.39062 215.57 4.49479 216.039 4.70312C216.508 4.90625 216.898 5.19531 217.211 5.57031C217.529 5.9401 217.768 6.38021 217.93 6.89062C218.091 7.40104 218.172 7.96094 218.172 8.57031V9.35938H212.312C212.344 9.6875 212.424 9.99219 212.555 10.2734C212.685 10.5547 212.854 10.7995 213.062 11.0078C213.276 11.2109 213.523 11.3724 213.805 11.4922C214.091 11.6068 214.404 11.6641 214.742 11.6641C215.216 11.6641 215.651 11.5703 216.047 11.3828C216.448 11.1953 216.773 10.9375 217.023 10.6094L218.039 11.5625C217.904 11.7656 217.729 11.9635 217.516 12.1562C217.302 12.3438 217.052 12.513 216.766 12.6641C216.479 12.8099 216.156 12.9271 215.797 13.0156C215.443 13.1094 215.055 13.1562 214.633 13.1562ZM214.406 5.89844C214.146 5.89844 213.904 5.94531 213.68 6.03906C213.456 6.13281 213.255 6.27083 213.078 6.45312C212.901 6.63021 212.75 6.84896 212.625 7.10938C212.505 7.36458 212.419 7.65625 212.367 7.98438H216.328V7.84375C216.312 7.59375 216.263 7.35417 216.18 7.125C216.102 6.89062 215.984 6.68229 215.828 6.5C215.672 6.31771 215.474 6.17188 215.234 6.0625C215 5.95312 214.724 5.89844 214.406 5.89844ZM225.812 10.7109C225.812 10.5703 225.784 10.4427 225.727 10.3281C225.669 10.2083 225.565 10.1016 225.414 10.0078C225.268 9.90885 225.065 9.81771 224.805 9.73438C224.549 9.65104 224.221 9.57031 223.82 9.49219C223.32 9.38802 222.867 9.26302 222.461 9.11719C222.06 8.97135 221.714 8.79688 221.422 8.59375C221.135 8.39062 220.914 8.15625 220.758 7.89062C220.602 7.61979 220.523 7.30729 220.523 6.95312C220.523 6.60938 220.604 6.28385 220.766 5.97656C220.927 5.66406 221.156 5.39062 221.453 5.15625C221.755 4.92188 222.12 4.73698 222.547 4.60156C222.979 4.46094 223.461 4.39062 223.992 4.39062C224.555 4.39062 225.057 4.46094 225.5 4.60156C225.948 4.74219 226.326 4.9349 226.633 5.17969C226.94 5.41927 227.174 5.70312 227.336 6.03125C227.503 6.35938 227.586 6.71094 227.586 7.08594H225.719C225.719 6.91927 225.682 6.76042 225.609 6.60938C225.536 6.45312 225.427 6.3151 225.281 6.19531C225.135 6.07552 224.953 5.98177 224.734 5.91406C224.521 5.84115 224.273 5.80469 223.992 5.80469C223.711 5.80469 223.466 5.83594 223.258 5.89844C223.055 5.95573 222.885 6.03385 222.75 6.13281C222.615 6.22656 222.513 6.33854 222.445 6.46875C222.383 6.59896 222.352 6.73438 222.352 6.875C222.352 7.01562 222.375 7.14323 222.422 7.25781C222.474 7.3724 222.568 7.47656 222.703 7.57031C222.839 7.66406 223.026 7.75 223.266 7.82812C223.505 7.90104 223.815 7.97135 224.195 8.03906C224.727 8.13281 225.203 8.25 225.625 8.39062C226.052 8.53125 226.414 8.70312 226.711 8.90625C227.013 9.10938 227.245 9.35156 227.406 9.63281C227.568 9.90885 227.648 10.2344 227.648 10.6094C227.648 10.9844 227.562 11.3281 227.391 11.6406C227.219 11.9531 226.974 12.224 226.656 12.4531C226.339 12.6771 225.956 12.8516 225.508 12.9766C225.065 13.1016 224.568 13.1641 224.016 13.1641C223.401 13.1641 222.859 13.0833 222.391 12.9219C221.922 12.7552 221.529 12.5391 221.211 12.2734C220.893 12.0078 220.651 11.7057 220.484 11.3672C220.323 11.0286 220.242 10.6849 220.242 10.3359H222.055C222.07 10.5964 222.138 10.8177 222.258 11C222.378 11.1823 222.531 11.3307 222.719 11.4453C222.906 11.5547 223.115 11.6354 223.344 11.6875C223.573 11.7344 223.805 11.7578 224.039 11.7578C224.617 11.7578 225.057 11.6615 225.359 11.4688C225.661 11.2708 225.812 11.0182 225.812 10.7109Z" fill="black"/>
<path d="M131.461 59H123.82V57.7109L127.523 53.6719C127.836 53.3229 128.096 53.0156 128.305 52.75C128.518 52.4792 128.688 52.2318 128.812 52.0078C128.938 51.7839 129.026 51.5755 129.078 51.3828C129.13 51.1901 129.156 50.9948 129.156 50.7969C129.156 50.5365 129.115 50.2969 129.031 50.0781C128.953 49.8542 128.839 49.6641 128.688 49.5078C128.542 49.3464 128.362 49.2214 128.148 49.1328C127.94 49.0443 127.706 49 127.445 49C126.768 49 126.268 49.1849 125.945 49.5547C125.628 49.9245 125.469 50.4349 125.469 51.0859H123.594C123.594 50.5911 123.682 50.125 123.859 49.6875C124.042 49.2448 124.299 48.8594 124.633 48.5312C124.971 48.2031 125.38 47.9453 125.859 47.7578C126.339 47.5651 126.878 47.4688 127.477 47.4688C128.039 47.4688 128.539 47.5495 128.977 47.7109C129.414 47.8724 129.784 48.099 130.086 48.3906C130.388 48.6771 130.617 49.0182 130.773 49.4141C130.93 49.8099 131.008 50.2448 131.008 50.7188C131.008 51.0729 130.951 51.4167 130.836 51.75C130.721 52.0781 130.562 52.4062 130.359 52.7344C130.156 53.0625 129.914 53.3932 129.633 53.7266C129.352 54.0547 129.047 54.3932 128.719 54.7422L126.141 57.5078H131.461V59Z" fill="black"/>
</svg>
