<svg width="229" height="58" viewBox="0 0 229 58" fill="none" xmlns="http://www.w3.org/2000/svg">
<circle cx="29" cy="29" r="28" stroke="black" stroke-width="2"/>
<circle cx="29" cy="53" r="4" stroke="black" stroke-width="2"/>
<line x1="65" y1="0.5" x2="115" y2="0.5" stroke="black"/>
<path d="M65 48H115" stroke="black"/>
<path d="M129.446 7.46582H130.697V8.78516H129.446V11H127.812V8.78516H123.492L123.451 7.79395L127.758 1.04688H129.446V7.46582ZM125.133 7.46582H127.812V3.22754L127.635 3.54883L125.133 7.46582ZM136.063 10.7744C136.063 11.016 136.032 11.2643 135.968 11.5195C135.909 11.7747 135.82 12.0254 135.701 12.2715C135.587 12.5176 135.448 12.75 135.284 12.9688C135.125 13.1921 134.947 13.3903 134.751 13.5635L133.828 13.0781C134.024 12.75 134.174 12.4036 134.279 12.0391C134.384 11.679 134.437 11.2757 134.437 10.8291V9.40039H136.07L136.063 10.7744ZM142.216 9.64648C142.808 9.64648 143.305 9.57812 143.706 9.44141C144.112 9.30013 144.44 9.10645 144.69 8.86035C144.941 8.61426 145.126 8.32487 145.244 7.99219C145.367 7.65495 145.445 7.29036 145.477 6.89844C145.376 7.01237 145.26 7.11947 145.128 7.21973C145 7.31543 144.854 7.40202 144.69 7.47949C144.531 7.55241 144.353 7.61165 144.157 7.65723C143.966 7.69824 143.754 7.71875 143.521 7.71875C143.034 7.71875 142.61 7.6276 142.25 7.44531C141.89 7.25846 141.591 7.01237 141.354 6.70703C141.118 6.39714 140.94 6.04167 140.821 5.64062C140.707 5.23958 140.65 4.82031 140.65 4.38281C140.65 3.9043 140.721 3.4554 140.862 3.03613C141.004 2.6123 141.211 2.24316 141.484 1.92871C141.758 1.61426 142.093 1.36589 142.489 1.18359C142.89 1.0013 143.346 0.910156 143.856 0.910156C144.408 0.910156 144.886 1.01953 145.292 1.23828C145.702 1.45703 146.042 1.75098 146.311 2.12012C146.584 2.48926 146.787 2.91992 146.919 3.41211C147.056 3.89974 147.124 4.41471 147.124 4.95703V5.49023C147.124 5.96419 147.092 6.43132 147.028 6.8916C146.969 7.34733 146.864 7.78255 146.714 8.19727C146.568 8.60742 146.372 8.98568 146.126 9.33203C145.884 9.67839 145.581 9.97917 145.217 10.2344C144.857 10.485 144.428 10.6833 143.932 10.8291C143.439 10.9704 142.87 11.041 142.223 11.041H142.093V9.64648H142.216ZM143.856 6.42676C144.043 6.42676 144.221 6.39714 144.39 6.33789C144.563 6.27865 144.72 6.19661 144.861 6.0918C145.003 5.98698 145.128 5.86165 145.237 5.71582C145.347 5.56999 145.433 5.41048 145.497 5.2373V4.69727C145.497 4.29622 145.451 3.94303 145.36 3.6377C145.274 3.3278 145.155 3.07031 145.005 2.86523C144.854 2.6556 144.679 2.49837 144.479 2.39355C144.283 2.28874 144.075 2.23633 143.856 2.23633C143.601 2.23633 143.376 2.29102 143.18 2.40039C142.984 2.50977 142.817 2.66016 142.681 2.85156C142.549 3.03841 142.446 3.25944 142.373 3.51465C142.305 3.76986 142.271 4.04329 142.271 4.33496C142.271 4.6084 142.302 4.87044 142.366 5.12109C142.43 5.37174 142.526 5.59505 142.653 5.79102C142.785 5.98242 142.952 6.13737 143.152 6.25586C143.353 6.36979 143.588 6.42676 143.856 6.42676ZM158.636 3.60352L158.677 4.38281C158.823 4.0957 159.019 3.8724 159.265 3.71289C159.511 3.54883 159.807 3.4668 160.153 3.4668C160.468 3.4668 160.728 3.5306 160.933 3.6582C161.142 3.78125 161.299 3.97493 161.404 4.23926C161.55 4.00228 161.737 3.81543 161.965 3.67871C162.193 3.53743 162.468 3.4668 162.792 3.4668C163.034 3.4668 163.255 3.50781 163.455 3.58984C163.66 3.66732 163.833 3.79264 163.975 3.96582C164.12 4.139 164.232 4.36003 164.31 4.62891C164.392 4.89779 164.433 5.22135 164.433 5.59961V11H162.915V5.58594C162.915 5.28971 162.851 5.08691 162.724 4.97754C162.601 4.86361 162.441 4.80664 162.245 4.80664C162.058 4.80664 161.91 4.85221 161.801 4.94336C161.691 5.02995 161.612 5.14616 161.562 5.29199V11H160.078V5.58594C160.078 5.29883 160.019 5.09831 159.9 4.98438C159.786 4.86589 159.629 4.80664 159.429 4.80664C159.237 4.80664 159.087 4.84766 158.978 4.92969C158.868 5.01172 158.784 5.12337 158.725 5.26465V11H157.207V3.60352H158.636ZM166.456 3.60352H170.4V9.64648H172.595V11H166.456V9.64648H168.753V4.96387H166.456V3.60352ZM168.616 1.68945C168.616 1.43424 168.698 1.22461 168.862 1.06055C169.026 0.891927 169.257 0.807617 169.553 0.807617C169.854 0.807617 170.086 0.891927 170.25 1.06055C170.419 1.22461 170.503 1.43424 170.503 1.68945C170.503 1.94466 170.419 2.15658 170.25 2.3252C170.086 2.48926 169.854 2.57129 169.553 2.57129C169.257 2.57129 169.026 2.48926 168.862 2.3252C168.698 2.15658 168.616 1.94466 168.616 1.68945ZM174.81 0.5H178.809V9.64648H181.064V11H174.81V9.64648H177.161V1.86035H174.81V0.5ZM184.551 4.62891C184.806 4.26432 185.116 3.97949 185.48 3.77441C185.85 3.56934 186.26 3.4668 186.711 3.4668C187.094 3.4668 187.445 3.52376 187.764 3.6377C188.087 3.75163 188.363 3.92936 188.591 4.1709C188.819 4.40788 188.996 4.71549 189.124 5.09375C189.252 5.46745 189.315 5.91634 189.315 6.44043V11H187.682V6.42676C187.682 6.14421 187.645 5.90267 187.572 5.70215C187.504 5.49707 187.404 5.32845 187.271 5.19629C187.144 5.06413 186.987 4.96615 186.8 4.90234C186.613 4.83854 186.401 4.80664 186.164 4.80664C185.809 4.80664 185.494 4.88184 185.221 5.03223C184.947 5.17806 184.724 5.3763 184.551 5.62695V11H182.917V0.5H184.551V4.62891ZM191.024 7.2334C191.024 6.7002 191.102 6.20345 191.257 5.74316C191.416 5.28288 191.642 4.88411 191.934 4.54688C192.23 4.20964 192.59 3.94531 193.014 3.75391C193.438 3.5625 193.918 3.4668 194.456 3.4668C194.998 3.4668 195.481 3.5625 195.905 3.75391C196.334 3.94531 196.694 4.20964 196.985 4.54688C197.282 4.88411 197.507 5.28288 197.662 5.74316C197.817 6.20345 197.895 6.7002 197.895 7.2334V7.37695C197.895 7.91471 197.817 8.41374 197.662 8.87402C197.507 9.33431 197.282 9.73307 196.985 10.0703C196.694 10.403 196.336 10.665 195.912 10.8564C195.488 11.0479 195.007 11.1436 194.47 11.1436C193.927 11.1436 193.442 11.0479 193.014 10.8564C192.59 10.665 192.23 10.403 191.934 10.0703C191.642 9.73307 191.416 9.33431 191.257 8.87402C191.102 8.41374 191.024 7.91471 191.024 7.37695V7.2334ZM192.658 7.37695C192.658 7.71419 192.692 8.03092 192.761 8.32715C192.834 8.62337 192.943 8.88542 193.089 9.11328C193.239 9.33659 193.428 9.51432 193.656 9.64648C193.884 9.77409 194.155 9.83789 194.47 9.83789C194.775 9.83789 195.039 9.77409 195.263 9.64648C195.491 9.51432 195.677 9.33659 195.823 9.11328C195.974 8.88542 196.083 8.62337 196.151 8.32715C196.224 8.03092 196.261 7.71419 196.261 7.37695V7.2334C196.261 6.90527 196.224 6.5931 196.151 6.29688C196.083 6.00065 195.974 5.74089 195.823 5.51758C195.677 5.29427 195.491 5.11654 195.263 4.98438C195.039 4.85221 194.771 4.78613 194.456 4.78613C194.146 4.78613 193.877 4.85221 193.649 4.98438C193.422 5.11654 193.235 5.29427 193.089 5.51758C192.943 5.74089 192.834 6.00065 192.761 6.29688C192.692 6.5931 192.658 6.90527 192.658 7.2334V7.37695ZM196.917 0.527344C196.917 0.736979 196.881 0.939779 196.808 1.13574C196.739 1.32715 196.641 1.49805 196.514 1.64844C196.386 1.79883 196.231 1.9196 196.049 2.01074C195.871 2.09733 195.675 2.14062 195.461 2.14062C195.233 2.14062 195.039 2.10872 194.88 2.04492C194.725 1.98112 194.579 1.91048 194.442 1.83301C194.306 1.75553 194.167 1.6849 194.025 1.62109C193.889 1.55729 193.729 1.52539 193.547 1.52539C193.46 1.52539 193.378 1.54362 193.301 1.58008C193.223 1.61198 193.155 1.65983 193.096 1.72363C193.036 1.78743 192.989 1.86263 192.952 1.94922C192.92 2.03581 192.904 2.13151 192.904 2.23633L192.05 2.04492C192.05 1.83984 192.084 1.63932 192.152 1.44336C192.225 1.2474 192.323 1.07194 192.446 0.916992C192.574 0.762044 192.727 0.638997 192.904 0.547852C193.082 0.452148 193.28 0.404297 193.499 0.404297C193.686 0.404297 193.857 0.436198 194.012 0.5C194.171 0.563802 194.324 0.63444 194.47 0.711914C194.62 0.789388 194.771 0.860026 194.921 0.923828C195.071 0.98763 195.235 1.01953 195.413 1.01953C195.5 1.01953 195.582 1.00358 195.659 0.97168C195.741 0.935221 195.812 0.88737 195.871 0.828125C195.93 0.764323 195.976 0.689128 196.008 0.602539C196.044 0.511393 196.062 0.413411 196.062 0.308594L196.917 0.527344ZM203.179 11.1367C202.632 11.1367 202.133 11.0456 201.682 10.8633C201.23 10.681 200.843 10.4303 200.52 10.1113C200.201 9.79232 199.952 9.41634 199.774 8.9834C199.597 8.5459 199.508 8.07422 199.508 7.56836V7.28809C199.508 6.7002 199.601 6.17155 199.788 5.70215C199.979 5.23275 200.232 4.83171 200.547 4.49902C200.866 4.16634 201.235 3.91113 201.654 3.7334C202.078 3.55566 202.522 3.4668 202.987 3.4668C203.525 3.4668 203.999 3.55794 204.409 3.74023C204.819 3.91797 205.161 4.1709 205.435 4.49902C205.713 4.82259 205.922 5.20768 206.063 5.6543C206.205 6.10091 206.275 6.59082 206.275 7.12402V7.81445H201.148C201.176 8.10156 201.246 8.36816 201.36 8.61426C201.474 8.86035 201.622 9.07454 201.805 9.25684C201.992 9.43457 202.208 9.57585 202.454 9.68066C202.705 9.78092 202.978 9.83105 203.274 9.83105C203.689 9.83105 204.07 9.74902 204.416 9.58496C204.767 9.4209 205.052 9.19531 205.271 8.9082L206.159 9.74219C206.041 9.91992 205.888 10.0931 205.701 10.2617C205.514 10.4258 205.296 10.5739 205.045 10.7061C204.794 10.8337 204.512 10.9362 204.197 11.0137C203.887 11.0957 203.548 11.1367 203.179 11.1367ZM202.98 4.78613C202.753 4.78613 202.541 4.82715 202.345 4.90918C202.149 4.99121 201.973 5.11198 201.818 5.27148C201.663 5.42643 201.531 5.61784 201.422 5.8457C201.317 6.06901 201.242 6.32422 201.196 6.61133H204.662V6.48828C204.648 6.26953 204.605 6.0599 204.532 5.85938C204.464 5.6543 204.361 5.47201 204.225 5.3125C204.088 5.15299 203.915 5.02539 203.705 4.92969C203.5 4.83398 203.258 4.78613 202.98 4.78613ZM212.961 8.99707C212.961 8.87402 212.936 8.76237 212.886 8.66211C212.836 8.55729 212.744 8.46387 212.612 8.38184C212.485 8.29525 212.307 8.21549 212.079 8.14258C211.856 8.06966 211.569 7.99902 211.218 7.93066C210.78 7.83952 210.384 7.73014 210.028 7.60254C209.677 7.47493 209.374 7.32227 209.119 7.14453C208.868 6.9668 208.675 6.76172 208.538 6.5293C208.401 6.29232 208.333 6.01888 208.333 5.70898C208.333 5.4082 208.404 5.12337 208.545 4.85449C208.686 4.58105 208.887 4.3418 209.146 4.13672C209.411 3.93164 209.73 3.76986 210.104 3.65137C210.482 3.52832 210.903 3.4668 211.368 3.4668C211.86 3.4668 212.3 3.52832 212.688 3.65137C213.079 3.77441 213.41 3.94303 213.679 4.15723C213.948 4.36686 214.153 4.61523 214.294 4.90234C214.44 5.18945 214.513 5.49707 214.513 5.8252H212.879C212.879 5.67936 212.847 5.54036 212.783 5.4082C212.719 5.27148 212.624 5.15072 212.496 5.0459C212.368 4.94108 212.209 4.85905 212.018 4.7998C211.831 4.736 211.614 4.7041 211.368 4.7041C211.122 4.7041 210.908 4.73145 210.726 4.78613C210.548 4.83626 210.4 4.90462 210.281 4.99121C210.163 5.07324 210.074 5.17122 210.015 5.28516C209.96 5.39909 209.933 5.51758 209.933 5.64062C209.933 5.76367 209.953 5.87533 209.994 5.97559C210.04 6.07585 210.122 6.16699 210.24 6.24902C210.359 6.33105 210.523 6.40625 210.732 6.47461C210.942 6.53841 211.213 6.59993 211.546 6.65918C212.011 6.74121 212.428 6.84375 212.797 6.9668C213.171 7.08984 213.487 7.24023 213.747 7.41797C214.011 7.5957 214.214 7.80762 214.355 8.05371C214.497 8.29525 214.567 8.58008 214.567 8.9082C214.567 9.23633 214.492 9.53711 214.342 9.81055C214.191 10.084 213.977 10.321 213.699 10.5215C213.421 10.7174 213.086 10.8701 212.694 10.9795C212.307 11.0889 211.872 11.1436 211.389 11.1436C210.851 11.1436 210.377 11.0729 209.967 10.9316C209.557 10.7858 209.213 10.5967 208.935 10.3643C208.657 10.1318 208.445 9.86751 208.299 9.57129C208.158 9.27507 208.087 8.97428 208.087 8.66895H209.673C209.687 8.89681 209.746 9.09049 209.851 9.25C209.955 9.40951 210.09 9.53939 210.254 9.63965C210.418 9.73535 210.6 9.80599 210.801 9.85156C211.001 9.89258 211.204 9.91309 211.409 9.91309C211.915 9.91309 212.3 9.82878 212.564 9.66016C212.829 9.48698 212.961 9.26595 212.961 8.99707Z" fill="black"/>
<path d="M130.403 57H123.718V55.8721L126.958 52.3379C127.231 52.0326 127.459 51.7637 127.642 51.5312C127.828 51.2943 127.977 51.0778 128.086 50.8818C128.195 50.6859 128.273 50.5036 128.318 50.335C128.364 50.1663 128.387 49.9954 128.387 49.8223C128.387 49.5944 128.35 49.3848 128.277 49.1934C128.209 48.9974 128.109 48.8311 127.977 48.6943C127.849 48.5531 127.692 48.4437 127.505 48.3662C127.323 48.2887 127.118 48.25 126.89 48.25C126.297 48.25 125.86 48.4118 125.577 48.7354C125.299 49.0589 125.16 49.5055 125.16 50.0752H123.52C123.52 49.6423 123.597 49.2344 123.752 48.8516C123.911 48.4642 124.137 48.127 124.429 47.8398C124.725 47.5527 125.083 47.3271 125.502 47.1631C125.921 46.9945 126.393 46.9102 126.917 46.9102C127.409 46.9102 127.847 46.9808 128.229 47.1221C128.612 47.2633 128.936 47.4616 129.2 47.7168C129.465 47.9674 129.665 48.266 129.802 48.6123C129.938 48.9587 130.007 49.3392 130.007 49.7539C130.007 50.0638 129.957 50.3646 129.856 50.6562C129.756 50.9434 129.617 51.2305 129.439 51.5176C129.262 51.8047 129.05 52.0941 128.804 52.3857C128.558 52.6729 128.291 52.9691 128.004 53.2744L125.748 55.6943H130.403V57Z" fill="black"/>
</svg>
